# xmcd
#
# Track frame offsets:
#   150
#   13816
#   28414
#   43860
#   64880
#   79341
#   94292
#   106235
#   122636
#   137554
#   152211
#   167053
#   180715
#   194248
#
# Disc length: 2730 seconds
#
# Revision: 0
# Processed by: cddbd v1.5.1PL2 Copyright (c) Steve Scherf et al.
# Submitted via: uFREEDB ActiveX Control 1.5
#
DISCID=cd0aa80e
DTITLE=Daniel - Bailão de Daniel
DYEAR=1900
DGENRE=Country
TTITLE0=Moreninha Linda
TTITLE1=Sou Maluco por Mulher
TTITLE2=Só Depois do Casamento
TTITLE3=A Gata do Milênio
TTITLE4=Show de Bola
TTITLE5=Já Tô no Grude
TTITLE6=Carro e Mulher
TTITLE7=Não Emperra Não
TTITLE8=Eu Tô no Meio
TTITLE9=Pode Passar o Rodo
TTITLE10=Dengo
TTITLE11=Peão Apaixonado
TTITLE12=A Tampa da Panela
TTITLE13=Falou e Disse
EXTD=
EXTT0=
EXTT1=
EXTT2=
EXTT3=
EXTT4=
EXTT5=
EXTT6=
EXTT7=
EXTT8=
EXTT9=
EXTT10=
EXTT11=
EXTT12=
EXTT13=
PLAYORDER=
